<svg xmlns="http://www.w3.org/2000/svg" viewBox="0 0 64 64">
  <rect width="64" height="64" rx="15" fill="#1c5fc7"/>
  <g fill="none" stroke="#fff" stroke-width="3.2" stroke-linecap="round" stroke-linejoin="round">
    <path d="M12 22v-6a4 4 0 0 1 4-4h6M42 12h6a4 4 0 0 1 4 4v6M52 42v6a4 4 0 0 1-4 4h-6M22 52h-6a4 4 0 0 1-4-4v-6"/>
    <path d="M32 24v8M32 32l-9 7M32 32l9 7"/>
  </g>
  <g fill="#fff">
    <circle cx="32" cy="22" r="4.5"/>
    <circle cx="22" cy="41" r="4.5"/>
    <circle cx="42" cy="41" r="4.5"/>
  </g>
</svg>
